<svg width="162" height="25" viewBox="0 0 162 25" fill="none" xmlns="http://www.w3.org/2000/svg">
<path d="M8.04102 20.6441C8.07759 20.6807 8.11415 20.7173 8.15072 20.7538C9.64985 22.253 12.0631 22.253 13.5622 20.7538L24.7143 9.60172C26.2135 8.10258 26.2135 5.68934 24.7143 4.1902C24.6412 4.11707 24.6047 4.08051 24.5315 4.04395L7.9679 20.6076L8.04102 20.6441Z" fill="url(#paint0_linear_3763_1913)"/>
<path d="M15.9389 12.6366L24.5315 4.04396C23.0323 2.72764 20.8019 2.83734 19.3759 4.26335L13.8913 9.71143L10.9296 12.7097V17.6824" fill="url(#paint1_linear_3763_1913)"/>
<path d="M10.893 12.7461L5.99335 7.80996C4.49421 6.31083 2.73913 6.53021 1.23999 8.02935L10.893 17.6823V12.7461Z" fill="url(#paint2_linear_3763_1913)"/>
<path d="M1.02066 13.6604L7.96787 20.6077L10.8565 17.7191L1.24004 8.02954C-0.259093 9.52868 -0.478478 12.1613 1.02066 13.6604Z" fill="url(#paint3_linear_3763_1913)"/>
<path d="M38.0785 2.9751L41.0036 13.6153H41.0402L43.9653 2.9751H51.2416V22.0251H46.1957V10.0686H46.1592L42.9781 21.9885H38.956L35.7749 10.0686H35.7384V21.9885H30.8387V2.9751H38.0785Z" fill="#40403F"/>
<path d="M67.8784 2.9751V7.50907H58.6276V10.1051H66.3792V14.2369H58.6276V17.2352H68.1709V21.9885H53.0698V2.9751H67.8784Z" fill="#40403F"/>
<path d="M77.2754 2.9751L80.2006 13.6153H80.2371L83.1623 2.9751H90.4386V22.0251H85.3927V10.0686H85.3561L82.1751 21.9885H78.1164L74.9353 10.0686H74.8988V21.9885H69.9991V2.9751H77.2754Z" fill="#40403F"/>
<path fill-rule="evenodd" clip-rule="evenodd" d="M102.139 2.9751C103.09 2.9751 103.894 3.08479 104.589 3.30418C105.284 3.52356 105.869 3.81608 106.417 4.21828C107.002 4.65706 107.441 5.20552 107.733 5.82711C108.062 6.44871 108.209 7.17999 108.209 7.98441C108.209 8.89851 108.026 9.6298 107.624 10.2148C107.222 10.7999 106.636 11.2752 105.832 11.6408V11.6774C106.892 12.0065 107.697 12.5915 108.245 13.3959C108.83 14.2003 109.086 15.151 109.086 16.2479C109.086 17.2717 108.903 18.1858 108.501 18.9537C108.099 19.7215 107.587 20.3431 106.892 20.8185C106.307 21.2207 105.649 21.5132 104.918 21.7326C104.15 21.9154 103.273 22.0251 102.285 22.0251H92.2667V2.9751H102.139ZM102.505 9.99544C102.834 9.73949 102.98 9.37385 102.98 8.86195C102.98 8.35005 102.797 7.98441 102.468 7.69189C102.139 7.39938 101.7 7.28968 101.152 7.28968H97.715V10.3611H101.189C101.737 10.3611 102.176 10.2514 102.505 9.99544ZM103.712 15.7726C103.712 16.3211 103.529 16.7964 103.163 17.1255C102.797 17.4546 102.322 17.6374 101.664 17.6374H97.715V13.9444H101.664C102.249 13.9444 102.724 14.0906 103.127 14.3832C103.529 14.6757 103.712 15.151 103.712 15.7726Z" fill="#40403F"/>
<path fill-rule="evenodd" clip-rule="evenodd" d="M110.915 22.0251H116.399L117.679 15.3338H120.092C121.006 15.3338 121.628 15.5532 121.957 15.992C122.286 16.4308 122.432 17.0524 122.432 17.8568C122.432 18.3687 122.432 18.8806 122.396 19.429C122.359 19.9409 122.359 20.4163 122.359 20.7819C122.359 21.0379 122.359 21.2572 122.396 21.4766C122.432 21.696 122.505 21.8788 122.579 21.9885H128.1V21.696C127.844 21.5132 127.734 21.0744 127.734 20.3797V18.7343C127.771 18.1493 127.771 17.6374 127.771 17.1986C127.771 16.1748 127.588 15.3338 127.222 14.7122C126.857 14.0906 126.308 13.6153 125.613 13.3228V13.2497C126.857 12.8109 127.807 12.1893 128.465 11.3849C129.124 10.5805 129.453 9.48354 129.453 8.05753C129.453 7.17999 129.27 6.44871 128.904 5.79055C128.539 5.13239 128.063 4.58393 127.442 4.18172C126.82 3.77951 126.125 3.487 125.284 3.26761C124.443 3.08479 123.566 2.9751 122.652 2.9751H114.571L110.915 22.0251ZM123.2 10.9095C122.688 11.2752 122.103 11.458 121.409 11.458H118.447L119.288 7.32625H121.847C122.579 7.32625 123.127 7.47251 123.456 7.80158C123.785 8.13066 123.968 8.56943 123.968 9.15446C123.968 9.95888 123.712 10.5439 123.2 10.9095Z" fill="#40403F"/>
<defs>
<linearGradient id="paint0_linear_3763_1913" x1="15.4645" y1="14.4156" x2="18.3301" y2="17.2929" gradientUnits="userSpaceOnUse">
<stop stop-color="#1C75BC"/>
<stop offset="1" stop-color="#00ADDC"/>
</linearGradient>
<linearGradient id="paint1_linear_3763_1913" x1="19.8471" y1="-3.66027" x2="9.35617" y2="5.49431" gradientUnits="userSpaceOnUse">
<stop stop-color="#00ADDC"/>
<stop offset="1" stop-color="#6DC8BF"/>
</linearGradient>
<linearGradient id="paint2_linear_3763_1913" x1="-1.79687" y1="12.239" x2="8.85763" y2="20.6058" gradientUnits="userSpaceOnUse">
<stop offset="1.24826e-07" stop-color="#079747"/>
<stop offset="0.363" stop-color="#5BAB7E"/>
<stop offset="1" stop-color="#A9E0F5"/>
</linearGradient>
<linearGradient id="paint3_linear_3763_1913" x1="-4.38487" y1="15.0837" x2="6.44214" y2="23.1496" gradientUnits="userSpaceOnUse">
<stop offset="0.00170451" stop-color="#005633"/>
<stop offset="0.2253" stop-color="#006851"/>
<stop offset="1" stop-color="#00ADDC"/>
</linearGradient>
</defs>
</svg>
