<svg width="12" height="11" viewBox="0 0 12 11" fill="none" xmlns="http://www.w3.org/2000/svg">
<path d="M2.83692 3.14312H4.13771C4.59544 3.14312 4.96525 3.4942 4.96525 3.92875C4.96525 4.3633 4.59544 4.71437 4.13771 4.71437H0.827542C0.369808 4.71437 0 4.3633 0 3.92875V0.78624C0 0.351691 0.369808 0.000613808 0.827542 0.000613808C1.28528 0.000613808 1.65508 0.351691 1.65508 0.78624V2.04324L2.11023 1.61115C4.37304 -0.537049 8.04008 -0.537049 10.3029 1.61115C12.5657 3.75935 12.5657 7.24065 10.3029 9.38885C8.04008 11.5371 4.37304 11.5371 2.11023 9.38885C1.78697 9.08197 1.78697 8.58358 2.11023 8.2767C2.43349 7.96981 2.95846 7.96981 3.28172 8.2767C4.89801 9.81113 7.5177 9.81113 9.13399 8.2767C10.7503 6.74227 10.7503 4.25527 9.13399 2.72085C7.5177 1.18642 4.89801 1.18642 3.28172 2.72085L2.83692 3.14312Z" fill="#1589EE"/>
</svg>
